<svg width="96" height="96" viewBox="0 0 96 96" fill="none" xmlns="http://www.w3.org/2000/svg">
<path d="M48 6C36.9025 6.13389 26.2972 10.6019 18.4496 18.4496C10.6019 26.2972 6.13389 36.9025 6 48C6.13389 59.0975 10.6019 69.7028 18.4496 77.5504C26.2972 85.3981 36.9025 89.8661 48 90C59.0975 89.8661 69.7028 85.3981 77.5504 77.5504C85.3981 69.7028 89.8661 59.0975 90 48C89.8661 36.9025 85.3981 26.2972 77.5504 18.4496C69.7028 10.6019 59.0975 6.13389 48 6V6ZM72 51H51V72H45V51H24V45H45V24H51V45H72V51Z" fill="#FF6F1F"/>
</svg>
