<svg width="60" height="60" viewBox="0 0 60 60" fill="none" xmlns="http://www.w3.org/2000/svg">
<path d="M30 3.75C23.0641 3.83368 16.4358 6.62616 11.531 11.531C6.62616 16.4358 3.83368 23.0641 3.75 30C3.83368 36.9359 6.62616 43.5642 11.531 48.469C16.4358 53.3738 23.0641 56.1663 30 56.25C36.9359 56.1663 43.5642 53.3738 48.469 48.469C53.3738 43.5642 56.1663 36.9359 56.25 30C56.1663 23.0641 53.3738 16.4358 48.469 11.531C43.5642 6.62616 36.9359 3.83368 30 3.75V3.75ZM45 31.875H31.875V45H28.125V31.875H15V28.125H28.125V15H31.875V28.125H45V31.875Z" fill="#FF6F1F"/>
</svg>
