<svg width="281" height="78" viewBox="0 0 281 78" fill="none" xmlns="http://www.w3.org/2000/svg">
<g clip-path="url(#clip0_1_28)">
<path d="M25.3333 64.8333C12.9167 64 6.41667 59.5833 0.25 48.5C0.0833333 48.25 0 47.9167 0 47.6667H7.08333V44.5C7.08333 40.4167 10.3333 37.1667 14.4167 37.1667C18.5 37.1667 21.75 40.4167 21.75 44.5V58.0833C21.75 60.8333 23.1667 63.3333 25.3333 64.8333V64.8333ZM52.9167 47.6667V44.4167C52.9167 40.3333 49.6667 37.0833 45.5833 37.0833C41.5833 37.0833 38.3333 40.25 38.25 44.1667V58.0833C38.25 60.9167 36.8333 63.3333 34.6667 64.8333C47.0833 64 53.5833 59.6667 59.75 48.5833C59.9167 48.3333 60 48 59.9167 47.6667H52.9167V47.6667Z" fill="#FFD8CA"/>
<path d="M35.4167 64.25C35.5 64.25 35.5 64.1667 35.5833 64.1667L36.0833 63.6667L36.25 63.5C36.4167 63.3333 36.5833 63.0833 36.75 62.9167L36.8333 62.8333C37 62.5833 37.1667 62.3333 37.3333 62C37.5 61.75 37.5833 61.5 37.6667 61.1667C37.6667 61.0833 37.75 61 37.75 60.9167C37.8333 60.75 37.9167 60.5 37.9167 60.3333C37.9167 60.25 38 60.1667 38 60C38.0833 59.75 38.0833 59.5833 38.0833 59.3333C38.0833 59.25 38.0833 59.1667 38.1667 59.0833C38.1667 58.75 38.25 58.4167 38.25 58.1667V44.0833C38.3333 40.1667 41.5833 37 45.5833 37C49.6667 37 52.9167 40.25 52.9167 44.3333V47.5833H60C60 47.25 59.9167 46.9167 59.75 46.6667C58.0833 43.5833 56.3333 40.6667 54.5 38C55.8333 37 56.9167 35.6667 57.8333 34.1667C60.3333 29.8333 60.1667 24.75 57.9167 20.6667C57.75 20.4167 57.5 20.25 57.1667 20.25C52.5833 20.25 48.5 22.75 46 27.0833C45.6667 27.5833 45.4167 28.1667 45.1667 28.6667C41 26.25 36.1667 24.8333 30 24.8333C23.8333 24.8333 19 26.3333 14.9167 28.8333C14.6667 28.25 14.4167 27.75 14.0833 27.25C11.5833 22.9167 7.5 20.4167 2.91667 20.4167C2.58333 20.4167 2.33333 20.5833 2.16667 20.8333C-0.0833335 24.8333 -0.25 30 2.25 34.3333C3.16667 35.8333 4.25 37.0833 5.58333 38.1667C3.66667 40.6667 1.91667 43.5833 0.25 46.75C0.0833333 47 0 47.3333 0 47.6667H7.08333V44.5C7.08333 40.4167 10.3333 37.1667 14.4167 37.1667C18.5 37.1667 21.75 40.4167 21.75 44.5V58.0833C21.75 58.4167 21.75 58.75 21.8333 59C21.8333 59.0833 21.8333 59.1667 21.9167 59.25C21.9167 59.5 22 59.6667 22 59.9167C22 60 22.0833 60.0833 22.0833 60.25C22.1667 60.5 22.25 60.6667 22.25 60.8333C22.25 60.9167 22.3333 61 22.3333 61.0833C22.4167 61.3333 22.5833 61.5833 22.6667 61.9167C22.8333 62.1667 23 62.5 23.1667 62.75L23.25 62.8333C23.4167 63.0833 23.5833 63.25 23.75 63.4167L23.9167 63.5833L24.4167 64.0833C24.5 64.0833 24.5 64.1667 24.5833 64.1667C24.8333 64.3333 25.0833 64.5833 25.3333 64.75C26.6667 65.6667 28.25 66.1667 30 66.1667C31.75 66.1667 33.3333 65.6667 34.6667 64.75C34.9167 64.6667 35.1667 64.5 35.4167 64.25V64.25Z" fill="#FF6F1F"/>
<path d="M27.4167 52.0833H31.75C32.25 52.0833 32.5833 52 32.5833 52C33.5833 51.9167 34.5 52.6667 34.5833 53.75C34.6667 54.25 34.4167 54.8333 34.0833 55.1667L32.5 56.9167C32.5 56.9167 32.1667 57.25 31.6667 57.5C31.4167 57.6667 31.1667 57.75 30.8333 57.8333C30.6667 57.9167 30.5 57.9167 30.3333 57.9167H29.3333C29.1667 57.9167 29 57.8333 28.8333 57.8333C28.6667 57.8333 28.5 57.75 28.4167 57.6667C28.25 57.6667 28.1667 57.5833 28 57.5C27.5 57.25 27.1667 57 27.1667 57L25.6667 55.5C24.9167 54.75 24.9167 53.5 25.6667 52.75C26.3333 52.25 26.9167 52 27.4167 52.0833V52.0833Z" fill="#2B3B47"/>
<path d="M25.5 59.8333C25.5 59.8333 27.25 60.9167 30 60.9167C32.75 60.9167 34.5 59.8333 34.5 59.8333C34.5 59.8333 34.25 63.9167 30 63.9167C25.75 63.9167 25.5 59.8333 25.5 59.8333Z" fill="#2B3B47" stroke="#2B3B47" stroke-width="1.09" stroke-miterlimit="10" stroke-linecap="round" stroke-linejoin="round"/>
<path d="M14.4167 41.0833C15.8333 41.0833 16.9167 42.1667 16.9167 43.5833V49.25C16.9167 50.6667 15.8333 51.75 14.4167 51.75C13 51.75 11.9167 50.6667 11.9167 49.25V43.5833C11.9167 42.1667 13.0833 41.0833 14.4167 41.0833ZM45.6667 41.0833C47.0833 41.0833 48.1667 42.1667 48.1667 43.5833V49.25C48.1667 50.6667 47.0833 51.75 45.6667 51.75C44.25 51.75 43.1667 50.6667 43.1667 49.25V43.5833C43.1667 42.1667 44.25 41.0833 45.6667 41.0833ZM47.75 30.75C50.75 24.0833 56.0833 21.1667 57.3333 20.5V20.4167H56.0833C51.8333 20.75 48.1667 23.1667 45.8333 27.1667C45.5 27.6667 45.25 28.25 45 28.75C46 29.4167 46.9167 30 47.75 30.75V30.75ZM12.25 30.75C13.1667 30 14.1667 29.25 15.25 28.6667C15.0833 28.0833 14.8333 27.5833 14.5 27.1667C11.9167 22.8333 7.33334 20.4167 2.66667 20.4167C2.58334 20.4167 2.58334 20.5 2.66667 20.5833C3.91667 21.0833 9.25 24.0833 12.25 30.75V30.75Z" fill="#2B3B47"/>
</g>
<path d="M84.656 24.88V58H77.36V24.88H84.656ZM107.408 33.664C111.888 33.664 114.128 35.856 114.128 40.24V58H107.024V42.448C107.024 41.392 106.832 40.672 106.448 40.288C106.064 39.872 105.408 39.664 104.48 39.664C103.456 39.664 102.4 39.872 101.312 40.288C100.224 40.672 98.8796 41.28 97.2796 42.112L96.9436 38.128C98.6396 36.688 100.368 35.584 102.128 34.816C103.92 34.048 105.68 33.664 107.408 33.664ZM96.6076 34.288L97.4236 38.992L97.9996 39.616V58H90.8956V34.288H96.6076ZM128.748 33.664C129.9 33.664 131.148 33.712 132.492 33.808C133.836 33.872 135.148 33.968 136.428 34.096C137.708 34.224 138.844 34.384 139.836 34.576L139.356 38.992C137.82 38.96 136.268 38.944 134.7 38.944C133.164 38.912 131.66 38.896 130.188 38.896C128.94 38.864 127.98 38.88 127.308 38.944C126.636 39.008 126.156 39.168 125.868 39.424C125.612 39.648 125.484 40.064 125.484 40.672C125.484 41.376 125.724 41.856 126.204 42.112C126.684 42.336 127.484 42.592 128.604 42.88L134.796 44.368C136.78 44.88 138.252 45.648 139.212 46.672C140.172 47.664 140.652 49.168 140.652 51.184C140.652 53.168 140.284 54.688 139.548 55.744C138.812 56.8 137.644 57.536 136.044 57.952C134.444 58.336 132.38 58.528 129.852 58.528C128.86 58.528 127.388 58.48 125.436 58.384C123.484 58.288 121.34 58.048 119.004 57.664L119.484 53.248C120.06 53.28 120.796 53.312 121.692 53.344C122.588 53.344 123.564 53.344 124.62 53.344C125.676 53.344 126.732 53.344 127.788 53.344C129.42 53.344 130.668 53.312 131.532 53.248C132.396 53.152 132.988 52.96 133.308 52.672C133.628 52.384 133.788 51.952 133.788 51.376C133.788 50.672 133.516 50.192 132.972 49.936C132.428 49.68 131.564 49.408 130.38 49.12L124.38 47.632C122.876 47.216 121.708 46.688 120.876 46.048C120.044 45.408 119.452 44.624 119.1 43.696C118.78 42.768 118.62 41.664 118.62 40.384C118.62 38.752 118.94 37.456 119.58 36.496C120.252 35.504 121.324 34.784 122.796 34.336C124.3 33.888 126.284 33.664 128.748 33.664ZM154.488 27.712V50.416C154.488 51.28 154.68 51.904 155.064 52.288C155.48 52.64 156.152 52.816 157.08 52.816H160.152L160.92 57.616C160.344 57.808 159.64 57.968 158.808 58.096C157.976 58.256 157.144 58.368 156.312 58.432C155.48 58.528 154.776 58.576 154.2 58.576C152.056 58.576 150.376 58 149.16 56.848C147.976 55.696 147.384 54.08 147.384 52L147.336 27.712H154.488ZM161.112 34.288V38.944H143.208V34.528L147.816 34.288H161.112ZM177.439 33.664C179.423 33.664 181.103 33.936 182.479 34.48C183.855 34.992 184.895 35.888 185.599 37.168C186.335 38.416 186.703 40.144 186.703 42.352V58H181.039L180.031 52.864L179.551 52.144V42.304C179.551 41.184 179.279 40.368 178.735 39.856C178.223 39.344 177.231 39.088 175.759 39.088C174.543 39.088 173.023 39.136 171.199 39.232C169.375 39.296 167.503 39.392 165.583 39.52L164.911 34.816C166.063 34.592 167.391 34.4 168.895 34.24C170.399 34.08 171.903 33.952 173.407 33.856C174.911 33.728 176.255 33.664 177.439 33.664ZM183.775 43.408L183.727 47.392L173.167 47.44C172.303 47.44 171.679 47.648 171.295 48.064C170.943 48.48 170.767 49.04 170.767 49.744V50.896C170.767 51.696 170.991 52.32 171.439 52.768C171.887 53.184 172.607 53.392 173.599 53.392C174.431 53.392 175.327 53.216 176.287 52.864C177.279 52.512 178.255 52.016 179.215 51.376C180.175 50.736 181.023 49.984 181.759 49.12V52.192C181.471 52.672 181.039 53.28 180.463 54.016C179.919 54.72 179.215 55.424 178.351 56.128C177.487 56.8 176.479 57.376 175.327 57.856C174.175 58.336 172.863 58.576 171.391 58.576C169.951 58.576 168.655 58.32 167.503 57.808C166.351 57.296 165.439 56.544 164.767 55.552C164.095 54.56 163.759 53.328 163.759 51.856V49.408C163.759 47.52 164.399 46.048 165.679 44.992C166.959 43.936 168.719 43.408 170.959 43.408H183.775Z" fill="black"/>
<path d="M199.774 24.736C201.47 24.736 203.198 24.752 204.958 24.784C206.75 24.784 208.494 24.832 210.19 24.928C211.918 24.992 213.518 25.104 214.99 25.264L214.606 30.544H202.606C201.742 30.544 201.086 30.752 200.638 31.168C200.19 31.584 199.966 32.192 199.966 32.992V58H192.622V31.504C192.622 29.456 193.278 27.824 194.59 26.608C195.902 25.36 197.63 24.736 199.774 24.736ZM193.486 38.752H212.83V43.936H193.486V38.752ZM229.535 33.664C232.511 33.664 234.895 34.08 236.687 34.912C238.479 35.712 239.759 37.024 240.527 38.848C241.327 40.672 241.727 43.12 241.727 46.192C241.727 49.2 241.327 51.616 240.527 53.44C239.759 55.264 238.479 56.576 236.687 57.376C234.895 58.176 232.511 58.576 229.535 58.576C226.591 58.576 224.207 58.176 222.383 57.376C220.591 56.576 219.295 55.264 218.495 53.44C217.695 51.616 217.295 49.2 217.295 46.192C217.295 43.12 217.695 40.672 218.495 38.848C219.295 37.024 220.591 35.712 222.383 34.912C224.207 34.08 226.591 33.664 229.535 33.664ZM229.535 38.848C228.319 38.848 227.359 39.056 226.655 39.472C225.951 39.888 225.455 40.624 225.167 41.68C224.879 42.736 224.735 44.24 224.735 46.192C224.735 48.112 224.879 49.6 225.167 50.656C225.455 51.712 225.951 52.448 226.655 52.864C227.359 53.248 228.319 53.44 229.535 53.44C230.751 53.44 231.711 53.248 232.415 52.864C233.119 52.448 233.615 51.712 233.903 50.656C234.191 49.6 234.335 48.112 234.335 46.192C234.335 44.24 234.191 42.736 233.903 41.68C233.615 40.624 233.119 39.888 232.415 39.472C231.711 39.056 230.751 38.848 229.535 38.848ZM269.239 34.288L262.375 45.856L269.767 58H262.567L255.559 45.856L262.039 34.288H269.239ZM251.239 34.288L257.719 45.856L250.759 58H243.511L250.903 45.856L244.039 34.288H251.239ZM260.407 43.552V47.968H252.919V43.552H260.407Z" fill="#FF6F1F"/>
<defs>
<clipPath id="clip0_1_28">
<rect width="60" height="60" fill="white" transform="translate(0 14)"/>
</clipPath>
</defs>
</svg>
